<?xml version="1.0" encoding="iso-8859-1"?>
<!-- Generator: Adobe Illustrator 19.0.0, SVG Export Plug-In . SVG Version: 6.00 Build 0)  -->
<svg version="1.1" id="Capa_1" xmlns="http://www.w3.org/2000/svg" xmlns:xlink="http://www.w3.org/1999/xlink" x="0px" y="0px"
	 viewBox="0 0 463.105 463.105" fill="white" style="enable-background:new 0 0 463.105 463.105;" xml:space="preserve">
<g>
	<path d="M282.134,216.88c-51.948,0-94.21,42.263-94.21,94.21s42.262,94.209,94.21,94.209c51.947,0,94.209-42.262,94.209-94.209
		S334.081,216.88,282.134,216.88z M282.134,390.299c-43.677,0-79.21-35.534-79.21-79.209c0-43.677,35.533-79.21,79.21-79.21
		c43.676,0,79.209,35.533,79.209,79.21C361.343,354.766,325.81,390.299,282.134,390.299z"/>
	<path d="M282.134,274.687c-20.073,0-36.403,16.33-36.403,36.403c0,20.072,16.331,36.403,36.403,36.403s36.403-16.331,36.403-36.403
		C318.536,291.017,302.206,274.687,282.134,274.687z M282.134,332.493c-11.802,0-21.403-9.602-21.403-21.403
		s9.602-21.403,21.403-21.403s21.403,9.602,21.403,21.403S293.935,332.493,282.134,332.493z"/>
	<path d="M282.134,260.783c4.264,0,8.496,0.533,12.58,1.584c0.627,0.162,1.256,0.238,1.875,0.238c3.34,0,6.387-2.248,7.258-5.632
		c1.033-4.012-1.382-8.101-5.394-9.133c-5.304-1.365-10.794-2.058-16.319-2.058c-4.142,0-7.5,3.358-7.5,7.5
		S277.991,260.783,282.134,260.783z"/>
	<path d="M320.538,267.241c-3.106,2.74-3.403,7.479-0.663,10.586c8.103,9.186,12.565,20.999,12.565,33.263
		c0,12.268-4.465,24.083-12.572,33.27c-2.741,3.106-2.445,7.845,0.661,10.586c1.426,1.259,3.196,1.876,4.96,1.876
		c2.077,0,4.144-0.857,5.626-2.537c10.528-11.929,16.326-27.27,16.326-43.195c0-15.921-5.794-31.258-16.316-43.186
		C328.384,264.798,323.644,264.501,320.538,267.241z"/>
	<path d="M404.972,216.88c-11.903,0-22.157,7.168-26.691,17.412c-22.579-28.211-57.287-46.315-96.148-46.315
		c-67.885,0-123.113,55.229-123.113,123.113c0,67.884,55.228,123.112,123.113,123.112s123.113-55.228,123.113-123.112
		c0-12.64-1.917-24.84-5.472-36.328c1.688,0.305,3.423,0.473,5.198,0.473c16.088,0,29.177-13.089,29.177-29.177
		C434.149,229.969,421.06,216.88,404.972,216.88z M282.134,419.202c-59.614,0-108.113-48.499-108.113-108.112
		c0-59.614,48.499-108.113,108.113-108.113s108.113,48.5,108.113,108.113C390.246,370.703,341.747,419.202,282.134,419.202z
		 M404.972,260.235c-7.817,0-14.177-6.36-14.177-14.177s6.36-14.178,14.177-14.178s14.177,6.36,14.177,14.178
		S412.789,260.235,404.972,260.235z"/>
	<path d="M412.198,187.977h-21.403v-43.08c0-29.587-4.412-58.927-13.113-87.206l-11.414-37.094C362.477,8.277,351.27,0,338.381,0
		H225.885c-12.889,0-24.096,8.277-27.887,20.597L186.585,57.69c-8.701,28.278-13.113,57.618-13.113,87.206v43.08H123.44v-6.951
		c0-12.104-9.848-21.952-21.952-21.952H79.811c-12.104,0-21.952,9.847-21.952,21.952v6.951h-6.951
		c-28.042,0-50.855,22.813-50.855,50.855v173.419c0,28.042,22.813,50.854,50.855,50.854h361.29
		c28.042,0,50.855-22.813,50.855-50.854V238.832C463.052,210.79,440.239,187.977,412.198,187.977z M325.214,23.5v11.354
		c0,4.688-3.813,8.5-8.5,8.5h-27.081V15h27.081C321.401,15,325.214,18.813,325.214,23.5z M274.634,15v28.354h-27.081
		c-4.687,0-8.5-3.813-8.5-8.5V23.5c0-4.687,3.813-8.5,8.5-8.5H274.634z M200.922,62.102l11.413-37.094
		c1.818-5.909,7.149-9.896,13.311-9.998c-1.025,2.635-1.594,5.497-1.594,8.49v11.354c0,12.958,10.542,23.5,23.5,23.5h33.372
		c0.395,0.064,0.796,0.106,1.209,0.106s0.814-0.042,1.209-0.106h33.372c12.958,0,23.5-10.542,23.5-23.5V23.5
		c0-2.994-0.569-5.855-1.594-8.49c6.161,0.102,11.493,4.089,13.311,9.998l11.414,37.094c8.261,26.849,12.45,54.705,12.45,82.795
		v33.262l-3.475-6.95c-3.743-7.485-11.266-12.134-19.634-12.134h-12.471V94.209c0-12.104-9.848-21.952-21.952-21.952h-72.258
		c-12.104,0-21.952,9.848-21.952,21.952v64.864h-12.471c-8.368,0-15.892,4.649-19.634,12.134l-3.475,6.95v-33.262
		C188.472,116.806,192.661,88.95,200.922,62.102z M311.311,159.074v-6.952c0-12.104-9.848-21.952-21.952-21.952h-14.452
		c-12.104,0-21.952,9.847-21.952,21.952v6.952h-13.903V94.209c0-3.833,3.119-6.952,6.952-6.952h72.258
		c3.833,0,6.952,3.118,6.952,6.952v64.864H311.311z M267.956,159.074v-6.952c0-3.833,3.119-6.952,6.952-6.952h14.452
		c3.833,0,6.952,3.119,6.952,6.952v6.952H267.956z M94.537,448.092V253.283c0-7.817,6.36-14.177,14.177-14.177h6.952v187.596
		C115.666,438.412,106.211,447.943,94.537,448.092z M72.859,181.025c0-3.833,3.119-6.952,6.952-6.952h21.678
		c3.833,0,6.952,3.119,6.952,6.952v6.951H72.859V181.025z M15.053,412.251V238.832c0-19.771,16.084-35.855,35.855-35.855h64.758
		v21.129h-6.952c-16.088,0-29.177,13.089-29.177,29.177v194.822H50.908C31.137,448.105,15.053,432.021,15.053,412.251z
		 M448.052,412.251c0,19.771-16.084,35.854-35.855,35.854H123.683c4.386-6.012,6.983-13.408,6.983-21.403V202.977h48.601
		c8.369,0,15.892-4.649,19.634-12.135l6.463-12.925c1.186-2.371,3.568-3.843,6.218-3.843h141.104c2.65,0,5.033,1.473,6.218,3.843
		l6.462,12.925c3.742,7.485,11.266,12.135,19.634,12.135h27.197c19.771,0,35.855,16.085,35.855,35.855V412.251z"/>
</g>
<g>
</g>
<g>
</g>
<g>
</g>
<g>
</g>
<g>
</g>
<g>
</g>
<g>
</g>
<g>
</g>
<g>
</g>
<g>
</g>
<g>
</g>
<g>
</g>
<g>
</g>
<g>
</g>
<g>
</g>
</svg>
