<?xml version="1.0" encoding="iso-8859-1"?>
<!-- Generator: Adobe Illustrator 19.0.0, SVG Export Plug-In . SVG Version: 6.00 Build 0)  -->
<svg version="1.1" id="Capa_1" xmlns="http://www.w3.org/2000/svg" xmlns:xlink="http://www.w3.org/1999/xlink" x="0px" y="0px"
	 viewBox="0 0 512 512" fill="white" style="enable-background:new 0 0 512 512;" xml:space="preserve">
<g>
	<g>
		<path d="M503.467,136.533H8.533c-4.71,0-8.533,3.814-8.533,8.533v358.4C0,508.186,3.823,512,8.533,512h494.933
			c4.71,0,8.533-3.814,8.533-8.533v-358.4C512,140.348,508.177,136.533,503.467,136.533z M494.933,494.933H17.067V153.6h477.867
			V494.933z"/>
	</g>
</g>
<g>
	<g>
		<path d="M460.8,179.2H51.2c-4.71,0-8.533,3.814-8.533,8.533V460.8c0,4.719,3.823,8.533,8.533,8.533h409.6
			c4.71,0,8.533-3.814,8.533-8.533V187.733C469.333,183.014,465.51,179.2,460.8,179.2z M452.267,452.267H59.733v-256h392.533
			V452.267z"/>
	</g>
</g>
<g>
	<g>
		<path d="M264.533,0c-23.526,0-42.667,19.14-42.667,42.667c0,23.526,19.14,42.667,42.667,42.667
			c23.526,0,42.667-19.14,42.667-42.667C307.2,19.14,288.06,0,264.533,0z M264.533,68.267c-14.114,0-25.6-11.486-25.6-25.6
			s11.486-25.6,25.6-25.6s25.6,11.486,25.6,25.6S278.647,68.267,264.533,68.267z"/>
	</g>
</g>
<g>
	<g>
		<path d="M270.566,36.634c-3.337-3.337-8.73-3.337-12.066,0l-102.4,102.4c-3.337,3.336-3.337,8.73,0,12.066
			c1.664,1.664,3.849,2.5,6.033,2.5c2.185,0,4.369-0.836,6.033-2.5l102.4-102.4C273.903,45.363,273.903,39.97,270.566,36.634z"/>
	</g>
</g>
<g>
	<g>
		<path d="M372.966,139.034l-76.8-76.8c-3.337-3.336-8.73-3.336-12.066,0c-3.337,3.337-3.337,8.73,0,12.066l76.8,76.8
			c1.664,1.664,3.849,2.5,6.033,2.5c2.185,0,4.369-0.836,6.033-2.5C376.303,147.763,376.303,142.37,372.966,139.034z"/>
	</g>
</g>
<g>
	<g>
		<path d="M323.226,456.721c-5.282-9.685-10.761-20.676-16.06-31.3c-12.459-24.96-24.218-48.538-36.181-62.345
			c-16.666-19.243-40.687-30.276-65.92-30.276c-25.233,0-49.263,11.034-65.929,30.268c-12.186,14.071-24.951,39.347-37.299,63.778
			c-5.205,10.317-10.385,20.565-15.462,29.875c-1.442,2.637-1.382,5.845,0.154,8.439c1.536,2.577,4.326,4.173,7.339,4.173h221.867
			c3.012,0,5.803-1.596,7.339-4.173C324.608,462.575,324.668,459.366,323.226,456.721z M108.049,452.267
			c2.987-5.777,5.999-11.742,9.02-17.732c11.878-23.509,24.166-47.821,34.97-60.297c13.423-15.488,32.751-24.371,53.026-24.371
			c20.275,0,39.595,8.883,53.026,24.371c10.547,12.186,22.374,35.883,33.801,58.795c3.191,6.391,6.443,12.911,9.694,19.234H108.049z
			"/>
	</g>
</g>
<g>
	<g>
		<path d="M434.15,456.713c-15.386-28.194-33.05-53.88-52.506-76.339c0,0,0,0,0-0.009c-29.815-34.389-81.579-40.115-117.871-12.979
			c-3.746,2.807-4.54,8.107-1.775,11.878c9.54,13.022,19.908,33.783,29.926,53.862c5.359,10.735,10.897,21.837,16.316,31.761
			c1.493,2.739,4.369,4.446,7.492,4.446h110.933c3.012,0,5.803-1.596,7.33-4.181C435.533,462.566,435.593,459.358,434.15,456.713z
			 M320.828,452.267c-4.514-8.508-9.139-17.766-13.628-26.76c-8.678-17.382-17.604-35.26-26.385-48.947
			c28.535-16.478,65.775-10.59,87.945,14.984c15.718,18.159,30.242,38.528,43.273,60.723H320.828z"/>
	</g>
</g>
<g>
	<g>
		<path d="M136.533,230.4c-18.825,0-34.133,15.309-34.133,34.133c0,18.825,15.309,34.133,34.133,34.133s34.133-15.309,34.133-34.133
			C170.667,245.709,155.358,230.4,136.533,230.4z M136.533,281.6c-9.412,0-17.067-7.654-17.067-17.067
			c0-9.412,7.654-17.067,17.067-17.067c9.412,0,17.067,7.654,17.067,17.067C153.6,273.946,145.946,281.6,136.533,281.6z"/>
	</g>
</g>
<g>
	<g>
		<path d="M136.533,213.333c-4.71,0-8.533,3.814-8.533,8.533v17.067c0,4.719,3.823,8.533,8.533,8.533s8.533-3.814,8.533-8.533
			v-17.067C145.067,217.148,141.244,213.333,136.533,213.333z"/>
	</g>
</g>
<g>
	<g>
		<path d="M136.533,281.6c-4.71,0-8.533,3.814-8.533,8.533V307.2c0,4.719,3.823,8.533,8.533,8.533s8.533-3.814,8.533-8.533v-17.067
			C145.067,285.414,141.244,281.6,136.533,281.6z"/>
	</g>
</g>
<g>
	<g>
		<path d="M179.2,256h-17.067c-4.71,0-8.533,3.814-8.533,8.533s3.823,8.533,8.533,8.533H179.2c4.71,0,8.533-3.814,8.533-8.533
			S183.91,256,179.2,256z"/>
	</g>
</g>
<g>
	<g>
		<path d="M110.933,256H93.867c-4.71,0-8.533,3.814-8.533,8.533s3.823,8.533,8.533,8.533h17.067c4.71,0,8.533-3.814,8.533-8.533
			S115.644,256,110.933,256z"/>
	</g>
</g>
<g>
	<g>
		<path d="M124.467,240.401l-16.034-16.034c-3.337-3.337-8.73-3.336-12.066,0c-3.337,3.337-3.337,8.73,0,12.066l16.034,16.034
			c1.664,1.664,3.849,2.5,6.033,2.5s4.369-0.836,6.033-2.5C127.804,249.131,127.804,243.738,124.467,240.401z"/>
	</g>
</g>
<g>
	<g>
		<path d="M176.7,292.634l-16.034-16.034c-3.336-3.337-8.73-3.337-12.066,0c-3.337,3.337-3.337,8.73,0,12.066l16.034,16.034
			c1.664,1.664,3.849,2.5,6.033,2.5c2.185,0,4.369-0.836,6.033-2.5C180.036,301.363,180.036,295.97,176.7,292.634z"/>
	</g>
</g>
<g>
	<g>
		<path d="M176.7,224.367c-3.336-3.337-8.73-3.337-12.066,0l-16.034,16.034c-3.337,3.337-3.337,8.73,0,12.066
			c1.664,1.664,3.849,2.5,6.033,2.5c2.185,0,4.369-0.836,6.033-2.5l16.034-16.034C180.036,233.097,180.036,227.703,176.7,224.367z"
			/>
	</g>
</g>
<g>
	<g>
		<path d="M124.467,276.599c-3.337-3.337-8.73-3.337-12.066,0l-16.034,16.034c-3.337,3.337-3.337,8.73,0,12.066
			c1.664,1.664,3.849,2.5,6.033,2.5c2.185,0,4.369-0.836,6.033-2.5l16.034-16.034C127.804,285.329,127.804,279.936,124.467,276.599z
			"/>
	</g>
</g>
<g>
	<g>
		<path d="M141.798,379.955c-1.604-2.731-4.574-4.369-7.782-4.19c-52.932,2.705-91.349,24.107-91.349,50.901V460.8
			c0,4.719,3.823,8.533,8.533,8.533h42.667c3.123,0,5.999-1.707,7.492-4.454c5.146-9.429,10.394-19.806,15.667-30.242
			c8.201-16.213,16.674-32.99,24.67-45.841C143.377,386.099,143.411,382.686,141.798,379.955z M101.794,426.94
			c-4.369,8.661-8.73,17.28-13.022,25.327H59.733v-25.6c0-12.681,23.117-27.332,59.008-32.333
			C113.075,404.625,107.366,415.906,101.794,426.94z"/>
	</g>
</g>
<g>
	<g>
		<path d="M464.051,403.738c-21.154-8.721-49.143-14.874-80.956-17.809c-3.413-0.367-6.707,1.451-8.32,4.489
			c-1.613,3.038-1.246,6.75,0.922,9.412c15.966,19.558,30.601,41.446,43.477,65.058c1.493,2.739,4.369,4.446,7.492,4.446H460.8
			c4.71,0,8.533-3.814,8.533-8.533v-49.178C469.333,408.166,467.243,405.052,464.051,403.738z M452.267,452.267h-20.565
			c-9.267-16.555-19.371-32.273-30.174-46.967c19.226,2.816,36.668,6.989,50.739,12.16V452.267z"/>
	</g>
</g>
<g>
	<g>
		<path d="M307.2,273.067c-14.694,0-27.674,7.467-35.354,18.799c-6.195-6.332-14.839-10.266-24.38-10.266
			c-4.71,0-8.533,3.814-8.533,8.533s3.823,8.533,8.533,8.533c9.412,0,17.067,7.654,17.067,17.067c0,4.719,3.823,8.533,8.533,8.533
			c4.71,0,8.533-3.814,8.533-8.533c0-14.114,11.486-25.6,25.6-25.6c4.71,0,8.533-3.814,8.533-8.533
			C315.733,276.881,311.91,273.067,307.2,273.067z"/>
	</g>
</g>
<g>
	<g>
		<path d="M409.6,221.867c-14.694,0-27.674,7.467-35.354,18.799c-6.195-6.332-14.839-10.266-24.38-10.266
			c-4.71,0-8.533,3.814-8.533,8.533s3.823,8.533,8.533,8.533c9.412,0,17.067,7.654,17.067,17.067c0,4.719,3.823,8.533,8.533,8.533
			s8.533-3.814,8.533-8.533c0-14.114,11.486-25.6,25.6-25.6c4.71,0,8.533-3.814,8.533-8.533S414.31,221.867,409.6,221.867z"/>
	</g>
</g>
<g>
</g>
<g>
</g>
<g>
</g>
<g>
</g>
<g>
</g>
<g>
</g>
<g>
</g>
<g>
</g>
<g>
</g>
<g>
</g>
<g>
</g>
<g>
</g>
<g>
</g>
<g>
</g>
<g>
</g>
</svg>
